<svg fill="none" height="1000" viewBox="0 0 1000 1000" width="1000" xmlns="http://www.w3.org/2000/svg" xmlns:xlink="http://www.w3.org/1999/xlink"><linearGradient id="a" gradientUnits="userSpaceOnUse" x1="247.226" x2="593.498" y1="649.784" y2="132.346"><stop offset="0" stop-color="#174864"/><stop offset=".965796" stop-color="#2e6686"/></linearGradient><linearGradient id="b" gradientUnits="userSpaceOnUse" x1="464.614" x2="374.954" y1="315.622" y2="461.955"><stop offset="0" stop-color="#47e8e0"/><stop offset="1" stop-color="#27c4bc"/></linearGradient><radialGradient id="c" cx="0" cy="0" gradientTransform="matrix(0 297.277 -302.921 0 585.927 413.444)" gradientUnits="userSpaceOnUse" r="1"><stop offset="0" stop-color="#fff" stop-opacity=".7"/><stop offset="1" stop-color="#fff" stop-opacity="0"/></radialGradient><mask id="d" height="600" maskUnits="userSpaceOnUse" width="873" x="60" y="97"><path clip-rule="evenodd" d="m295.568 217.565c-39.425 39.149-64.629 89.826-72.179 144.407l66.876-8.248c10.607-1.31 20.283 6.297 21.583 17 1.3 10.695-6.25 20.436-16.874 21.745l-91.345 11.267c-1.863.476-3.809.729-5.808.729l-.099-.001-54.008 6.662c-.801.104-1.602.147-2.385.147-9.651 0-18.002-7.251-19.198-17.147-1.3-10.695 6.25-20.435 16.874-21.744l36.025-4.444c6.671-69.707 37.414-134.803 87.299-184.338 52.919-52.546 122.988-83.068 197.292-85.9302 33.429-1.2837 66.479 3.0012 98.204 12.7592 30.673 9.428 59.513 23.765 85.72 42.604 25.93 18.64 48.615 41.2 67.426 67.065 17.153 23.578 30.689 49.354 40.324 76.76l159.55-19.679c10.624-1.318 20.284 6.297 21.584 17 1.3 10.696-6.251 20.436-16.874 21.745l-236.291 29.145c-.81.103-1.602.147-2.385.147-9.651 0-18.001-7.251-19.199-17.148-1.3-10.695 6.251-20.436 16.874-21.745l28.354-3.498c-17.735-44.17-48.089-83.087-86.869-110.969-45.335-32.595-98.798-48.676-154.61-46.533-62.466 2.411-121.378 28.067-165.861 72.242zm86.812 465.488c28.607 8.995 58.282 13.54 88.388 13.54 3.857 0 7.722-.078 11.587-.234 75.631-2.915 146.604-34.348 199.842-88.497 50.675-51.546 80.809-119.009 85.489-190.907l41.264-5.091c10.624-1.31 18.174-11.051 16.874-21.745-1.3-10.704-10.96-18.319-21.584-17.001l-224.557 27.704c-10.624 1.31-18.173 11.051-16.873 21.745 1.196 9.897 9.547 17.148 19.197 17.148.784 0 1.576-.052 2.385-.148l135.295-16.691c-5.765 57.013-30.657 110.243-71.125 151.409-44.759 45.528-104.428 71.949-168.014 74.403-28.668 1.101-56.949-2.654-84.058-11.18-26.206-8.231-50.776-20.738-73.03-37.149-40.164-29.617-70.863-71.013-87.665-117.786l18.794-2.318c10.624-1.31 18.174-11.05 16.874-21.745-1.3-10.703-10.969-18.318-21.584-17l-172.8598 21.32c-10.6235 1.31-18.1736 11.051-16.8736 21.745 1.1966 9.897 9.5474 17.148 19.1981 17.148.792 0 1.584-.053 2.3847-.148l106.0476-13.08c19.05 59.85 57.057 112.998 107.713 150.357 26.473 19.525 55.7 34.392 86.891 44.201zm-33.385-316.908c1.198 9.896 9.548 17.147 19.199 17.147.792 0 1.584-.044 2.385-.147l232.116-28.632c10.623-1.31 18.174-11.05 16.874-21.745-1.3-10.703-10.968-18.309-21.584-17l-232.116 28.632c-10.623 1.31-18.174 11.05-16.874 21.745zm-20.136 104.794c-9.65 0-18.001-7.251-19.197-17.148-1.3-10.694 6.25-20.434 16.873-21.744l172.507-21.277c10.615-1.318 20.282 6.297 21.582 17 1.3 10.695-6.249 20.436-16.872 21.746l-172.508 21.276c-.809.104-1.601.147-2.385.147z" fill="#914a4a" fill-rule="evenodd"/></mask><path clip-rule="evenodd" d="m203.629 403.736 91.345-11.267c10.624-1.309 18.174-11.05 16.874-21.745-1.3-10.703-10.976-18.31-21.583-17l-66.876 8.248c7.55-54.581 32.754-105.258 72.179-144.407 44.483-44.175 103.395-69.831 165.861-72.242 55.812-2.143 109.275 13.938 154.61 46.533 38.78 27.882 69.134 66.799 86.869 110.969l-28.354 3.498c-10.623 1.309-18.174 11.05-16.874 21.745 1.197 9.897 9.548 17.148 19.199 17.148.783 0 1.575-.044 2.385-.147l236.291-29.145c10.623-1.309 18.174-11.049 16.874-21.745-1.3-10.703-10.96-18.318-21.584-17l-159.55 19.679c-9.635-27.406-23.171-53.182-40.324-76.76-18.811-25.865-41.496-48.425-67.426-67.065-26.207-18.839-55.047-33.176-85.72-42.604-31.725-9.758-64.775-14.0429-98.204-12.7592-74.304 2.8622-144.373 33.3842-197.292 85.9302-49.885 49.535-80.628 114.631-87.299 184.338l-36.025 4.444c-10.624 1.309-18.174 11.049-16.874 21.744 1.196 9.896 9.547 17.147 19.198 17.147.783 0 1.584-.043 2.385-.147l54.008-6.662c.034.001.066.001.099.001 1.999 0 3.945-.253 5.808-.729zm267.149 292.857c-30.106 0-59.781-4.545-88.388-13.54-31.191-9.809-60.418-24.676-86.891-44.201-50.657-37.359-88.664-90.508-107.713-150.358l-106.0576 13.081c-.8007.095-1.5927.148-2.3847.148-9.6507 0-18.0015-7.251-19.1981-17.148-1.3-10.694 6.2501-20.435 16.8736-21.745l172.8598-21.32c10.615-1.318 20.284 6.297 21.584 17 1.3 10.695-6.25 20.435-16.874 21.745l-18.784 2.317c16.801 46.773 47.501 88.17 87.665 117.787 22.254 16.411 46.824 28.918 73.03 37.149 27.109 8.526 55.39 12.281 84.059 11.18 63.586-2.454 123.254-28.875 168.013-74.403 40.469-41.166 65.36-94.396 71.125-151.41l-135.305 16.692c-.81.096-1.602.148-2.385.148-9.651 0-18.001-7.251-19.198-17.148-1.3-10.694 6.25-20.435 16.873-21.745l224.558-27.704c10.624-1.318 20.284 6.297 21.584 17.001 1.3 10.694-6.25 20.435-16.874 21.745l-41.253 5.088c-4.681 71.9-34.814 139.364-85.49 190.91-53.238 54.149-124.211 85.582-199.84 88.497-3.867.156-7.732.234-11.589.234z" fill="url(#a)" fill-rule="evenodd"/><path clip-rule="evenodd" d="m348.996 366.145c1.196 9.896 9.547 17.147 19.198 17.147.792 0 1.584-.044 2.385-.147l232.116-28.632c10.624-1.31 18.174-11.05 16.874-21.745-1.3-10.703-10.969-18.309-21.583-17l-232.116 28.632c-10.624 1.31-18.174 11.05-16.874 21.745zm-39.335 87.646c1.197 9.897 9.547 17.148 19.198 17.148.784 0 1.576-.044 2.385-.147l172.507-21.277c10.624-1.309 18.174-11.05 16.874-21.745-1.3-10.703-10.968-18.318-21.582-17.001l-172.508 21.278c-10.624 1.309-18.174 11.049-16.874 21.744z" fill="url(#b)" fill-rule="evenodd"/><g mask="url(#d)"><path d="m585.927 710.721c167.298 0 302.921-133.095 302.921-297.277 0-164.181-135.623-297.277-302.921-297.277s-302.92 133.096-302.92 297.277c0 164.182 135.622 297.277 302.92 297.277z" fill="url(#c)" fill-opacity=".6"/></g><path clip-rule="evenodd" d="m515.393 777.561c1.801-.226 2.784 1.123 2.784 2.808v144.132c0 1.498-1.113 2.791-2.784 2.791h-15.038c-1.485 0-2.785-1.293-2.785-2.791v-9.942c-6.312 7.115-17.266 15.373-34.16 15.373-31.933 0-54.211-23.611-54.211-57.313 0-33.515 22.278-57.668 53.115-57.668 17.99 0 29.129 9.174 34.718 15.353v-47.988c0-1.685 1.133-2.677 2.766-2.827zm197.734 37.39c17.99 0 29.149 9.174 34.718 15.353v-9.923c0-1.686 1.281-2.79 2.766-2.79h15.614c1.671 0 2.766 1.104 2.766 2.79v104.12c0 1.498-1.095 2.791-2.766 2.791h-15.057c-1.485 0-2.766-1.293-2.766-2.791v-9.942c-6.331 7.115-17.285 15.373-34.18 15.373-31.931 0-54.21-23.611-54.21-57.313 0-33.515 22.279-57.668 53.115-57.668zm-449.465-37.402c1.913-.225 2.767 1.33 2.767 2.828v100.843c0 24.173-14.853 48.7-48.084 48.7-22.26 0-46.414-13.5-46.952-42.876 0-.749.353-1.498.928-2.061.353-.579 1.096-.748 1.838-.748h16.152c1.486 0 2.803 1.124 2.803 2.621.353 13.668 10.379 22.281 25.788 22.281 19.14 0 25.806-14.791 25.806-27.523l.073-98.692c0-1.516 1.281-2.827 2.767-2.827zm78.332 37.405c31.562 0 52.93 22.469 52.93 55.984v7.114c0 1.499-1.318 2.809-2.804 2.809h-81.316c1.857 17.975 14.11 29.021 32.49 29.021 13.553 0 24.877-6.74 28.962-17.038.371-1.123 1.484-1.872 2.617-1.872h16.319c.743 0 1.671.374 2.247 1.123.352.749.538 1.685.352 2.434-6.311 21.532-26.362 35.387-50.665 35.387-32.136 0-54.601-23.778-54.601-57.48 0-33.328 22.651-57.482 53.469-57.482zm222.973-43.432c1.763-.262 2.784 1.123 2.784 2.789v53.755c5.755-6.945 15.966-13.124 30.261-13.124 24.693 0 41.773 17.974 41.773 44.019v65.531c0 1.498-1.299 2.79-2.766 2.79h-15.799c-1.486 0-2.767-1.292-2.767-2.79v-64.595c0-14.043-10.415-24.528-24.153-24.528-14.852 0-26.549 11.233-26.549 25.838v63.285c0 1.498-1.299 2.79-2.784 2.79h-15.781c-1.485 0-2.785-1.292-2.785-2.79v-147.989c0-1.704 1.318-2.659 2.785-2.827zm-101 63.463c-19.476 0-33.047 15.372-33.047 37.634 0 22.655 12.997 37.447 33.418 37.447 19.698 0 33.232-15.334 33.232-37.447 0-22.468-13.534-37.634-33.603-37.634zm250.812 0c-19.474 0-33.045 15.372-33.045 37.634 0 22.655 13.181 37.447 33.435 37.447 19.68 0 33.233-15.334 33.233-37.447 0-22.468-13.553-37.634-33.623-37.634zm-372.785.003c-15.409 0-27.848 10.861-30.614 26.214h60.876c-2.228-16.102-13.721-26.214-30.262-26.214z" fill="#145774" fill-rule="evenodd"/></svg>